<svg xmlns="http://www.w3.org/2000/svg" width="31" height="49" viewBox="0 0 31 49">
    <g fill="none" fill-rule="evenodd">
        <g>
            <g>
                <path fill="#38D200" d="M2.026 23.041l26.232 17.185c2.024 1.327 2.595 4.053 1.276 6.088-1.32 2.036-4.03 2.61-6.053 1.283L3.27 34.36S.734 32.895.154 30.163c-.76-3.573 1.522-6.671 1.837-7.077l.035-.045zm23.11-13.614c2.378.002 4.305 1.942 4.305 4.335s-1.927 4.333-4.306 4.335c-.893-.006-1.764-.286-2.496-.801l-5.395-3.534 5.395-3.534c.73-.522 1.602-.802 2.496-.801z" transform="translate(-141 -2702) translate(141 2702)"/>
                <path fill="#0473EA" d="M4.301 39.676c.892.006 1.761.284 2.492.797l5.384 3.52-5.384 3.521c-.728.52-1.599.798-2.492.798C1.926 48.312 0 46.378 0 43.994c0-2.385 1.926-4.318 4.301-4.318zM21.425 1.994c1.313 2.03.74 4.744-1.281 6.063l-9.295 6.076 15.837 10.355.032.019c.316.19 2.854 1.794 3.38 4.389.748 3.682-1.624 6.745-1.846 7.022l-.017.02-23.877-15.61s-3.09-1.873-3.09-6.205c0-4.318 3.09-6.168 3.09-6.168L15.385.71c2.021-1.32 4.725-.744 6.039 1.285z" transform="translate(-141 -2702) translate(141 2702)"/>
            </g>
        </g>
    </g>
</svg>
