<svg xmlns="http://www.w3.org/2000/svg" width="183" height="219" viewBox="0 0 183 219">
    <g fill="none" fill-rule="evenodd">
        <g fill-rule="nonzero">
            <g transform="translate(-915.000000, -1465.000000) translate(1006.500000, 1574.500000) scale(-1, 1) translate(-1006.500000, -1574.500000) translate(915.000000, 1465.000000)">
                <path fill="#A1C5E0" d="M98.777 212.907c-2.664 0-4.815-2.149-4.815-4.81v-19.21c0-2.662 2.15-4.81 4.815-4.81 2.664 0 4.814 2.148 4.814 4.81v19.21c0 2.661-2.15 4.81-4.814 4.81zM151.095 187.187c-.545 0-1.091-.289-1.38-.802L45.078 5.321c-.45-.77-.193-1.732.578-2.18.77-.45 1.733-.193 2.182.577l104.637 181.064c.45.77.193 1.732-.577 2.18-.257.16-.546.225-.803.225z"/>
                <path fill="#DBE8F3" d="M98.937 193.665c-34.151 0-67.404-17.702-85.668-49.29C.077 121.572-3.42 94.986 3.415 69.524 10.252 44.06 26.59 22.798 49.411 9.65 56.472 5.578 63.95 2.403 71.719.19c2.567-.738 5.231.738 5.938 3.303.738 2.566-.739 5.227-3.306 5.933-6.998 1.988-13.77 4.875-20.126 8.53C33.62 29.854 18.886 49.032 12.724 71.994c-6.163 22.961-2.985 46.95 8.89 67.538 24.555 42.492 79.153 57.116 121.682 32.582 6.355-3.688 12.229-8.081 17.46-13.148 1.894-1.86 4.944-1.796 6.805.128 1.862 1.924 1.798 4.939-.128 6.799-5.778 5.612-12.293 10.487-19.355 14.56-15.47 8.979-32.418 13.212-49.14 13.212z"/>
                <ellipse cx="98.777" cy="95.051" fill="#009FDA" rx="78.638" ry="78.57"/>
                <path fill="#DBE8F3" d="M139.893 202.324H57.66c-9.212 0-16.69 7.472-16.69 16.676h115.646c-.032-9.204-7.51-16.676-16.723-16.676z"/>
                <path fill="#005C84" d="M28.676 119.841v-12.924c0-.994.385-1.924 1.091-2.63l9.79-9.78c.706-.706 1.637-1.091 2.632-1.091h3.82c2.054 0 3.723 1.668 3.723 3.72v2.886c0 2.053 1.669 3.72 3.723 3.72s3.723-1.667 3.723-3.72V90.017c0-.995.386-1.925 1.092-2.63l3.595-3.592c.706-.705 1.091-1.635 1.091-2.63V58.653c0-.995-.385-1.925-1.091-2.63l-5.264-5.26c-.706-.705-1.092-1.635-1.092-2.63V34.826l-3.113-3.11c-19.547 14.302-32.29 37.328-32.29 63.369 0 32.839 20.19 60.932 48.82 72.701v-13.533c0-.994.385-1.924 1.091-2.63l6.291-6.286c.707-.705 1.092-1.635 1.092-2.63v-10.55c0-.994-.385-1.924-1.092-2.63l-4.846-4.842c-.706-.706-1.637-1.09-2.632-1.09H32.367c-2.054-.033-3.691-1.7-3.691-3.753zm60.471-95.118c.707-.705 1.092-1.635 1.092-2.63v-5.13c-7.318.801-14.316 2.597-20.864 5.259v8.755c0 .994.386 1.924 1.092 2.63l2.279 2.276c1.444 1.443 3.82 1.443 5.264 0l11.137-11.16zm24.908-6.734l-6.002 5.997c-.706.705-1.092 1.635-1.092 2.63v9.396c0 2.052 1.67 3.72 3.724 3.72h7.222c2.054 0 3.723 1.667 3.723 3.72v1.667c0 2.053-1.67 3.72-3.723 3.72h-1.252c-2.054 0-3.723 1.668-3.723 3.72v11.257c0 .994-.386 1.924-1.092 2.63l-3.916 3.912c-1.444 1.443-1.444 3.816 0 5.26l2.376 2.373c1.444 1.443 3.82 1.443 5.264 0l9.918-9.91c.706-.705 1.637-1.09 2.632-1.09h23.655c2.055 0 3.724 1.667 3.724 3.72v2.47c0 2.052-1.67 3.72-3.724 3.72h-22.436c-.995 0-1.926.384-2.632 1.09l-9.79 9.78c-.706.706-1.09 1.636-1.09 2.63v22c0 2.053 1.668 3.72 3.723 3.72h12.518c.995 0 1.925-.385 2.632-1.09l5.263-5.26c.707-.705 1.637-1.09 2.632-1.09h3.82c2.054 0 3.723 1.668 3.723 3.72v32.743c0 .994.385 1.924 1.092 2.63l2.985 2.982c14.315-14.239 23.174-33.93 23.174-55.705.032-38.162-27.219-69.943-63.328-77.062zM86.13 46.755h.995c2.054 0 3.724-1.668 3.724-3.72v-.417c0-2.053-1.67-3.72-3.724-3.72h-.995c-2.054 0-3.723 1.667-3.723 3.72v.417c0 2.084 1.669 3.72 3.723 3.72zm19.323 4.297l-2.76-2.758c-1.445-1.443-3.788-1.443-5.232-.032l-1.252 1.25c-1.477 1.444-1.477 3.817-.032 5.292l.93.93c1.445 1.443 1.445 3.817 0 5.26l-1.572 1.571c-1.445 1.443-1.445 3.816 0 5.26l.738.737c1.444 1.443 3.82 1.443 5.264 0l3.916-3.912c.706-.706 1.091-1.636 1.091-2.63v-8.274c0-1.058-.385-1.988-1.091-2.694zm-55.496 66.93h7.863c2.055 0 3.724-1.668 3.724-3.72v-.418c0-2.052-1.67-3.72-3.724-3.72h-7.863c-2.055 0-3.724 1.668-3.724 3.72v.417c0 2.053 1.67 3.72 3.724 3.72z"/>
                <g transform="translate(79.903364, 6.219018)">
                    <ellipse cx="18.873" cy="55.32" fill="#000F46" rx="10.111" ry="10.102"/>
                    <path fill="#69BE28" d="M37.746 18.857c0 3.4-.898 6.606-2.471 9.364-3.242 5.676-16.402 27.099-16.402 27.099S5.65 33.865 2.407 28.125C.867 25.399 0 22.225 0 18.889 0 8.466 8.442 0 18.905 0c10.4 0 18.841 8.434 18.841 18.857z"/>
                    <ellipse cx="18.873" cy="18.857" fill="#FFF" rx="7.543" ry="7.536"/>
                </g>
                <g transform="translate(145.253536, 56.247312)">
                    <ellipse cx="18.873" cy="55.32" fill="#000F46" rx="10.111" ry="10.102"/>
                    <path fill="#69BE28" d="M37.746 18.857c0 3.4-.898 6.606-2.471 9.364-3.242 5.677-16.402 27.099-16.402 27.099S5.65 33.865 2.407 28.125C.867 25.399 0 22.225 0 18.889 0 8.466 8.442 0 18.905 0c10.4-.032 18.841 8.434 18.841 18.857z"/>
                    <ellipse cx="18.873" cy="18.857" fill="#FFF" rx="7.543" ry="7.536"/>
                </g>
                <g transform="translate(42.092705, 80.523997)">
                    <ellipse cx="18.841" cy="55.32" fill="#000F46" rx="10.111" ry="10.102"/>
                    <path fill="#69BE28" d="M37.746 18.857c0 3.4-.898 6.606-2.471 9.364-3.242 5.676-16.402 27.099-16.402 27.099S5.65 33.865 2.407 28.125C.867 25.399 0 22.225 0 18.889 0 8.466 8.442 0 18.905 0c10.368 0 18.841 8.434 18.841 18.857z"/>
                    <ellipse cx="18.841" cy="18.857" fill="#FFF" rx="7.543" ry="7.536"/>
                </g>
            </g>
        </g>
    </g>
</svg>
