<svg
  width="1440"
  height="200"
  viewBox="0 0 1440 200"
  fill="none"
  xmlns="http://www.w3.org/2000/svg"
>
  <rect width="1440" height="200" fill="#D8D8D8" />
  <mask
    id="mask0_714_13444"
    style="mask-type: alpha"
    maskUnits="userSpaceOnUse"
    x="0"
    y="0"
    width="1440"
    height="200"
  >
    <rect width="1440" height="200" fill="white" />
  </mask>
  <g mask="url(#mask0_714_13444)">
    <path
      d="M411.877 -214.425H391.225V-74.8524C375.771 -74.8524 372.563 -66.256 354.322 -66.256V-9.98123H338.889V-5.25739H328.014V-5.74969H267.208V17.4134L250.693 33.929V-124.442H182.842V-204.704H152.358V-158.836H143.203V-185.585H129.037L109.971 -204.65H78.9693V-171.237H24.2388V-123.299H7.70644V-203.812H-19.89L-53.7004 -170.002V-22.3817C-88.9698 -22.3817 -76.25 -12.6578 -96.7966 -12.6578V363.656H411.877V-214.425Z"
      fill="#E9F4E7"
    />
    <path
      d="M1037.82 -102.373V-129.86H1009.21V-123.689H1002.81V-173.565H984.09V-149.598H978.094V-165.238H961.899V-138.368H935.006V-147.356H890.253V-114.715H875.392V363.657H1064.63V-82.6599C1052.52 -82.6599 1054.19 -102.373 1037.82 -102.373Z"
      fill="#E9F4E7"
    />
    <path
      d="M863.643 -79.3535V-14.7538H856.102V-50.4026V-176.435H834.406V-231.032C835.008 -231.635 835.889 -232.991 835.889 -234.599C835.889 -237.375 835.112 -239.401 831.409 -241.086H831.413C830.087 -241.507 830.073 -242.099 830.073 -243.168C830.073 -243.616 829.915 -244.024 829.662 -244.354V-248.359C829.662 -249.21 828.97 -249.901 828.119 -249.901C827.268 -249.901 826.577 -249.21 826.577 -248.359V-244.353C826.324 -244.023 826.168 -243.616 826.168 -243.168C826.168 -242.145 826.102 -241.545 824.812 -241.086H824.816C821.258 -239.401 820.35 -237.375 820.35 -234.599C820.35 -233.037 821.158 -231.707 821.834 -231.032V-176.435H809.883V-152.684H809.575V-231.032V-241.731C809.575 -242.951 808.568 -243.94 807.326 -243.94C806.082 -243.94 805.076 -242.951 805.076 -241.731V-231.032H788.469V-246.665V-253.044C789.702 -254.155 790.324 -255.887 790.324 -257.674C790.324 -261.696 788.889 -265.838 781.844 -269.787C779.073 -271.023 778.521 -272.55 778.521 -274.262C778.521 -275.048 778.187 -275.642 777.674 -276.026V-280.102C777.674 -280.954 776.984 -281.645 776.132 -281.645C775.281 -281.645 774.589 -280.954 774.589 -280.102V-276.027C774.075 -275.643 773.742 -275.049 773.742 -274.262C773.742 -272.55 773.268 -270.924 770.418 -269.787C770.256 -269.697 770.112 -269.606 769.955 -269.516C769.354 -280.235 763.271 -288.219 748.557 -294.916H748.572C743.006 -296.686 740.291 -300.102 740.291 -304.587C740.291 -305.8 739.779 -306.753 738.962 -307.277V-307.42C739.759 -307.93 740.291 -308.818 740.291 -309.836V-311.814C740.291 -312.832 739.759 -313.721 738.962 -314.232V-322.243C738.962 -323.095 738.27 -323.786 737.419 -323.786C736.568 -323.786 735.877 -323.095 735.877 -322.243V-314.23C735.079 -313.72 734.547 -312.832 734.547 -311.814V-309.836C734.547 -308.818 735.079 -307.93 735.877 -307.42V-307.247C735.059 -306.694 734.547 -305.716 734.547 -304.587C734.547 -300.294 731.678 -296.839 726.267 -294.916H726.282C712.144 -288.219 705.545 -280.234 704.89 -269.512C704.731 -269.603 704.585 -269.696 704.422 -269.787C701.57 -270.924 700.146 -272.868 700.146 -274.581C700.146 -275.066 699.871 -275.473 699.478 -275.719V-278.174C699.478 -278.6 699.133 -278.944 698.707 -278.944C698.282 -278.944 697.936 -278.6 697.936 -278.174V-275.719C697.543 -275.473 697.27 -275.066 697.27 -274.581C697.27 -272.868 695.766 -271.023 692.994 -269.787C685.95 -265.838 684.514 -261.696 684.514 -257.674C684.514 -255.887 685.136 -254.155 686.369 -253.044V-246.665V-231.032H669.763V-241.731C669.763 -242.951 668.756 -243.94 667.513 -243.94C666.27 -243.94 665.264 -242.951 665.264 -241.731V-231.032V-217.758H653.625C653.429 -217.824 653.222 -217.869 653.005 -217.869V-227.189C654.067 -227.189 654.926 -228.05 654.926 -229.11C654.926 -230.172 654.067 -231.032 653.005 -231.032C653.607 -231.635 654.488 -232.991 654.488 -234.599C654.488 -237.375 653.076 -239.401 649.374 -241.086H649.378C648.051 -241.507 647.988 -242.556 647.988 -243.624C647.988 -244.031 647.785 -244.376 647.489 -244.609V-246.432C647.489 -246.857 647.144 -247.201 646.719 -247.201C646.293 -247.201 645.948 -246.857 645.948 -246.432V-244.608C645.652 -244.376 645.45 -244.03 645.45 -243.624C645.45 -242.601 645.35 -241.545 644.061 -241.086H644.064C640.506 -239.401 638.949 -237.375 638.949 -234.599C638.949 -233.037 639.757 -231.707 640.433 -231.032C639.371 -231.032 638.512 -230.172 638.512 -229.11C638.512 -228.05 639.371 -227.189 640.433 -227.189V-217.869C640.214 -217.869 640.009 -217.824 639.813 -217.758H623.71V-172.232H600.387V-114.173L572.244 -86.0287V-147.906H560.122V-300.647H552.611V-327.148V-333.718H545.099V-345.549L536.436 -356.394V-392.256C536.436 -393.104 535.75 -393.789 534.902 -393.789C534.053 -393.789 533.368 -393.104 533.368 -392.256V-356.391L524.705 -345.549V-333.718H517.193V-327.148V-300.647H509.682V-141.937H497.463V-108.461H483.751V-179.064H411.877V399.017H875.391V-79.3535H863.643Z"
      fill="#DBE8F3"
    />
    <path
      d="M1268.36 2.36169V-25.1267H1239.75V-18.9547H1233.35V-68.8304H1214.63V-44.8639H1208.64V-60.503H1192.44V-33.6331H1165.55V-42.6208H1120.8V-9.97998H1094.19V54.6198H1086.65V18.9709H1052.31V-46.9786H1040.43V-23.2282H939.207V-76.5731H911.842V-272.625L855.271 -328.204V-42.7758H831.738V-84.0876C831.738 -139.703 816.727 -184.788 798.21 -184.788C779.692 -184.788 764.681 -139.703 764.681 -84.0876V20.9943H691.189V-73.6467L665.791 -49.6094H643.699V-184.71H647.108C649.609 -184.71 651.632 -186.732 651.632 -189.233C651.632 -191.733 649.609 -193.756 647.108 -193.756H643.699V-201.052H647.108C649.609 -201.052 651.632 -203.076 651.632 -205.576C651.632 -208.076 649.609 -210.1 647.108 -210.1H643.699V-224.703C659.786 -231.761 671.026 -247.82 671.026 -266.514C671.026 -287.754 656.52 -305.603 636.874 -310.699V-340.738H628.824V-360.633C628.824 -362.537 627.283 -364.078 625.38 -364.078C623.475 -364.078 621.935 -362.537 621.935 -360.633V-340.738H613.886V-310.699C594.24 -305.603 579.732 -287.754 579.732 -266.514C579.732 -247.82 590.974 -231.761 607.061 -224.703V-210.1H603.65C601.15 -210.1 599.127 -208.076 599.127 -205.576C599.127 -203.076 601.15 -201.052 603.65 -201.052H607.061V-193.756H603.65C601.15 -193.756 599.127 -191.733 599.127 -189.233C599.127 -186.732 601.15 -184.71 603.65 -184.71H607.061V69.3606H584.865V151.021H563.364V-74.8379H504.342V-113.016H458.419L388.908 34.682H376.15V16.4817H354.949L335.884 -2.58319H309.514V41.6453H300.35V71.6193H291.187V33.103H225.594L191.785 66.9134V82.3531C156.515 82.3531 154.293 92.077 133.748 92.077V594.723H1295.17V22.075C1283.07 22.075 1284.73 2.36169 1268.36 2.36169Z"
      fill="#A1C5E0"
    />
    <path d="M804.956 181.323H994.22V343.604H804.956V181.323Z" fill="#0075B0" />
    <path
      d="M644.402 181.323H652.221V30.9978H644.402V181.323Z"
      fill="#6BA8D0"
    />
    <path
      d="M674.958 181.323H682.778V30.9978H674.958V181.323Z"
      fill="#6BA8D0"
    />
    <path
      d="M705.516 181.323H713.335V-57.1842H705.516V181.323Z"
      fill="#6BA8D0"
    />
    <path
      d="M736.072 181.323H743.892V-57.1842H736.072V181.323Z"
      fill="#6BA8D0"
    />
    <path
      d="M1103.91 281.588H1184.06V-113.465H1103.91V281.588Z"
      fill="#6BA8D0"
    />
    <path d="M1005.15 60.907H1054.94V-246.302H1005.15V60.907Z" fill="#9FD18B" />
    <path
      d="M960.645 304.227H1005.15V-246.302H960.645V304.227Z"
      fill="#C3E2C1"
    />
    <path
      d="M1005.15 304.227H1184.06V-30.3058H1005.15V304.227Z"
      fill="#0075B0"
    />
    <path
      d="M1077.85 -30.3056H1103.91V180.265H1077.85V-30.3056Z"
      fill="#005C84"
    />
    <path
      d="M1184.06 -113.465H1148.75V129.992H1184.06V-113.465Z"
      fill="#0075B0"
    />
    <path
      d="M1139.53 57.2002H1146.87V74.3822H1139.53V57.2002Z"
      fill="#6BA8D0"
    />
    <path
      d="M1146.87 57.2001H1139.53V40.0193H1146.87V57.2001Z"
      fill="#005C84"
    />
    <path
      d="M1146.87 40.0195H1139.53V22.8387H1146.87V40.0195Z"
      fill="#6BA8D0"
    />
    <path
      d="M1139.53 5.65651H1146.87V22.8386H1139.53V5.65651Z"
      fill="#6BA8D0"
    />
    <path
      d="M1139.53 -11.5243H1146.87V5.65649H1139.53V-11.5243Z"
      fill="#005C84"
    />
    <path
      d="M1120.29 -11.5243H1127.63V5.65649H1120.29V-11.5243Z"
      fill="#005C84"
    />
    <path
      d="M1158.77 57.2002H1166.11V74.3822H1158.77V57.2002Z"
      fill="#005C84"
    />
    <path
      d="M1166.11 57.2001H1158.77V40.0193H1166.11V57.2001Z"
      fill="#005C84"
    />
    <path
      d="M1166.11 40.0195H1158.77V22.8387H1166.11V40.0195Z"
      fill="#6BA8D0"
    />
    <path
      d="M1158.77 5.65651H1166.11V22.8386H1158.77V5.65651Z"
      fill="#005C84"
    />
    <path
      d="M1158.77 -11.5243H1166.11V5.65649H1158.77V-11.5243Z"
      fill="#6BA8D0"
    />
    <path
      d="M1120.29 5.65651H1127.63V22.8386H1120.29V5.65651Z"
      fill="#6BA8D0"
    />
    <path
      d="M1127.63 40.0195H1120.29V22.8387H1127.63V40.0195Z"
      fill="#005C84"
    />
    <path
      d="M1127.63 74.3809H1120.29V57.1989H1127.63V74.3809Z"
      fill="#005C84"
    />
    <path
      d="M1127.63 57.2001H1120.29V40.0193H1127.63V57.2001Z"
      fill="#6BA8D0"
    />
    <path d="M1127.63 91.5618H1120.29V74.381H1127.63V91.5618Z" fill="#6BA8D0" />
    <path
      d="M667.551 405.742V594.722H462.4V191.29L485.216 183.942V106.469H46.4675V1135.93H1208.69V405.742H667.551Z"
      fill="#009FDA"
    />
    <path
      d="M1143.57 117.958L1088.08 103.09C1089.75 96.5946 1090.65 89.8006 1090.72 82.8108H1148.18C1148.1 94.9411 1146.51 106.718 1143.57 117.958ZM1129.5 152.429L1079.75 123.704C1083.08 117.808 1085.73 111.48 1087.59 104.824L1143.1 119.697C1139.92 131.256 1135.32 142.235 1129.5 152.429ZM1107 182.075L1066.39 141.468C1071.16 136.596 1075.35 131.16 1078.85 125.265L1128.59 153.985C1122.57 164.234 1115.3 173.666 1107 182.075ZM1077.63 204.946L1048.91 155.201C1054.81 151.7 1060.24 147.51 1065.11 142.741L1105.72 183.349C1097.31 191.653 1087.88 198.919 1077.63 204.946ZM1043.34 219.452L1028.47 163.943C1035.13 162.082 1041.45 159.434 1047.35 156.099L1076.08 205.854C1065.88 211.677 1054.9 216.273 1043.34 219.452ZM1006.46 224.531V167.076C1013.45 167.003 1020.24 166.1 1026.74 164.432L1041.6 219.924C1030.36 222.862 1018.59 224.455 1006.46 224.531ZM969.509 219.925L984.377 164.433C990.872 166.1 997.666 167.003 1004.66 167.076V224.531C992.524 224.455 980.748 222.862 969.509 219.925ZM935.037 205.854L963.763 156.099C969.659 159.434 975.987 162.082 982.643 163.943L967.77 219.452C956.209 216.273 945.232 211.677 935.037 205.854ZM905.392 183.349L945.999 142.742C950.87 147.511 956.306 151.7 962.202 155.201L933.482 204.946C923.233 198.921 913.801 191.653 905.392 183.349ZM882.521 153.985L932.265 125.265C935.767 131.16 939.956 136.596 944.726 141.468L904.118 182.075C895.813 173.667 888.546 164.234 882.521 153.985ZM868.015 119.697L923.524 104.824C925.385 111.48 928.033 117.808 931.367 123.704L881.613 152.43C875.79 142.235 871.194 131.258 868.015 119.697ZM862.936 82.8108H920.391C920.464 89.8006 921.367 96.5946 923.034 103.09L867.543 117.958C864.605 106.718 863.011 94.9411 862.936 82.8108ZM867.543 45.8615L923.034 60.7308C921.367 67.2247 920.464 74.0199 920.391 81.0097H862.936C863.011 68.8793 864.605 57.1021 867.543 45.8615ZM881.613 11.3906L931.367 40.117C928.033 46.0116 925.385 52.3398 923.524 58.9969L868.015 44.124C871.194 32.5628 875.79 21.5853 881.613 11.3906ZM904.118 -18.2555L944.726 22.3526C939.956 27.223 935.767 32.6601 932.265 38.556L882.521 9.83563C888.546 -0.413055 895.813 -9.84644 904.118 -18.2555ZM933.482 -41.1256L962.202 8.61923C956.306 12.1207 950.87 16.3091 945.999 21.0786L905.392 -19.5284C913.801 -27.833 923.233 -35.1001 933.482 -41.1256ZM967.77 -55.6311L982.643 -0.122467C975.987 1.73874 969.659 4.38647 963.763 7.72104L935.037 -42.0334C945.232 -47.856 956.209 -52.4526 967.77 -55.6311ZM1004.66 -60.7104V-3.25534C997.666 -3.1821 990.872 -2.27908 984.377 -0.612396L969.509 -56.1042C980.748 -59.0413 992.524 -60.6348 1004.66 -60.7104ZM1041.6 -56.103L1026.74 -0.611206C1020.24 -2.27908 1013.45 -3.1821 1006.46 -3.25534V-60.7104C1018.59 -60.6348 1030.36 -59.0413 1041.6 -56.103ZM1076.08 -42.0334L1047.35 7.72104C1041.45 4.38647 1035.13 1.73874 1028.47 -0.122467L1043.34 -55.6311C1054.9 -52.4526 1065.88 -47.856 1076.08 -42.0334ZM1105.72 -19.5284L1065.11 21.0797C1060.24 16.3102 1054.81 12.1207 1048.91 8.61923L1077.63 -41.1256C1087.88 -35.0989 1097.31 -27.833 1105.72 -19.5284ZM1128.59 9.83563L1078.85 38.556C1075.35 32.6601 1071.16 27.223 1066.39 22.3526L1107 -18.2543C1115.3 -9.84525 1122.57 -0.413055 1128.59 9.83563ZM1143.1 44.124L1087.59 58.9969C1085.73 52.3398 1083.08 46.0128 1079.75 40.117L1129.5 11.3918C1135.32 21.5853 1139.92 32.564 1143.1 44.124ZM1012.4 81.0097L1086.34 61.1979C1087.97 67.5429 1088.85 74.1808 1088.92 81.0097H1012.4ZM1012.4 82.8108H1088.92C1088.85 89.6397 1087.97 96.2776 1086.34 102.623L1012.4 82.8108ZM1011.93 84.5508L1085.85 104.358C1084.03 110.86 1081.44 117.043 1078.19 122.803L1011.93 84.5508ZM1011.03 86.1106L1077.29 124.364C1073.87 130.123 1069.77 135.435 1065.11 140.195L1011.03 86.1106ZM1009.76 87.3834L1063.84 141.468C1059.08 146.127 1053.77 150.22 1048.01 153.641L1009.76 87.3834ZM1008.2 88.2864L1046.45 154.54C1040.69 157.796 1034.51 160.383 1028 162.203L1008.2 88.2864ZM1006.46 88.7511L1026.27 162.692C1019.92 164.319 1013.29 165.203 1006.46 165.275V88.7511ZM1004.66 88.7535V165.275C997.827 165.203 991.189 164.319 984.844 162.692L1004.66 88.7535ZM1002.92 88.284L983.109 162.204C976.607 160.383 970.424 157.796 964.663 154.54L1002.92 88.284ZM1001.36 87.3846L963.103 153.641C957.344 150.22 952.032 146.127 947.272 141.468L1001.36 87.3846ZM1000.08 86.1106L945.999 140.195C941.34 135.435 937.246 130.123 933.825 124.364L1000.08 86.1106ZM999.182 84.5508L932.927 122.804C929.671 117.043 927.084 110.86 925.262 104.358L999.182 84.5508ZM998.714 82.8108L924.775 102.623C923.147 96.2776 922.264 89.6397 922.192 82.8108H998.714ZM998.714 81.0097H922.192C922.264 74.1808 923.147 67.5429 924.775 61.1967L998.714 81.0097ZM999.182 79.2697L925.262 59.4628C927.084 52.9606 929.671 46.7777 932.927 41.0164L999.182 79.2697ZM1000.08 77.7099L933.825 39.4565C937.246 33.6976 941.34 28.3853 945.999 23.6254L1000.08 77.7099ZM1001.36 76.4359L947.272 22.3526C952.032 17.6935 957.344 13.6001 963.103 10.179L1001.36 76.4359ZM1002.92 75.5365L964.663 9.28085C970.424 6.02432 976.607 3.43784 983.109 1.61624L1002.92 75.5365ZM1004.66 75.067L984.844 1.12872C991.189 -0.498322 997.827 -1.38211 1004.66 -1.45416V75.067ZM1006.46 75.0694V-1.45416C1013.29 -1.38211 1019.92 -0.498322 1026.27 1.12872L1006.46 75.0694ZM1008.2 75.5341L1028 1.61746C1034.51 3.43787 1040.69 6.02432 1046.45 9.28085L1008.2 75.5341ZM1009.76 76.4371L1048.01 10.179C1053.77 13.6001 1059.08 17.6935 1063.84 22.3526L1009.76 76.4371ZM1078.19 41.0176C1081.44 46.7777 1084.03 52.9606 1085.85 59.4628L1011.93 79.2697L1078.19 41.0176ZM1011.03 77.7099L1065.11 23.6254C1069.77 28.3853 1073.87 33.6976 1077.29 39.4565L1011.03 77.7099ZM1148.18 81.0097H1090.72C1090.65 74.0199 1089.75 67.2247 1088.08 60.7308L1143.57 45.8627C1146.51 57.1021 1148.1 68.8793 1148.18 81.0097ZM1202.27 82.8108V81.0097H1149.98C1149.9 68.7184 1148.29 56.785 1145.31 45.3968L1195.8 31.8688L1195.33 30.1277L1144.84 43.6581C1141.62 31.9432 1136.96 20.8192 1131.06 10.4912L1176.36 -15.6642L1175.46 -17.224L1130.15 8.93503C1124.05 -1.44934 1116.68 -11.0076 1108.27 -19.5272L1145.29 -56.5473L1144.01 -57.8213L1106.99 -20.8012C1098.47 -29.2163 1088.92 -36.5794 1078.53 -42.6854L1104.69 -87.9946L1103.13 -88.8952L1076.98 -43.5932C1066.65 -49.4939 1055.52 -54.1505 1043.81 -57.371L1057.34 -107.863L1055.6 -108.33L1042.07 -57.843C1030.68 -60.8209 1018.75 -62.4359 1006.46 -62.5116V-114.799H1004.66V-62.5116C992.363 -62.4359 980.431 -60.8209 969.042 -57.843L955.515 -108.33L953.774 -107.863L967.303 -57.3723C955.589 -54.1505 944.465 -49.4939 934.136 -43.5932L907.982 -88.8952L906.422 -87.9946L932.581 -42.6854C922.197 -36.5807 912.639 -29.2163 904.119 -20.8012L867.099 -57.8213L865.826 -56.5473L902.845 -19.5284C894.43 -11.0076 887.067 -1.44934 880.961 8.93503L835.652 -17.224L834.751 -15.6642L880.053 10.4901C874.152 20.8192 869.494 31.9433 866.274 43.6569L815.783 30.1277L815.316 31.8688L865.803 45.3956C862.825 56.785 861.21 68.7172 861.135 81.0097H808.848V82.8108H861.135C861.21 95.1033 862.825 107.035 865.803 118.425L815.316 131.952L815.783 133.693L866.274 120.164C869.494 131.877 874.152 143.001 880.053 153.33L834.751 179.485L835.652 181.045L880.961 154.885C887.067 165.27 894.43 174.828 902.845 183.349L865.826 220.368L867.099 221.642L904.119 184.622C912.639 193.037 922.197 200.401 932.581 206.506L906.422 251.815L907.982 252.716L934.136 207.414C944.465 213.314 955.589 217.971 967.303 221.193L953.774 271.683L955.515 272.15L969.042 221.663C980.431 224.641 992.363 226.256 1004.66 226.332V278.619H1006.46V226.332C1018.75 226.256 1030.68 224.641 1042.07 221.663L1055.6 272.15L1057.34 271.683L1043.81 221.192C1055.52 217.971 1066.65 213.314 1076.98 207.414L1103.13 252.716L1104.69 251.815L1078.53 206.506C1088.92 200.4 1098.47 193.037 1106.99 184.622L1144.01 221.642L1145.29 220.368L1108.27 183.348C1116.68 174.828 1124.05 165.27 1130.15 154.885L1175.46 181.045L1176.36 179.485L1131.06 153.329C1136.96 143 1141.62 131.877 1144.84 120.162L1195.33 133.693L1195.8 131.952L1145.31 118.424C1148.29 107.035 1149.9 95.1021 1149.98 82.8108H1202.27Z"
      fill="#DBE8F3"
    />
    <path
      d="M1005.56 -114.797C897.091 -114.797 808.848 -26.5528 808.848 81.9116C808.848 190.377 897.091 278.618 1005.56 278.618C1114.02 278.618 1202.27 190.377 1202.27 81.9116C1202.27 -26.5528 1114.02 -114.797 1005.56 -114.797ZM1005.56 288C891.918 288 799.466 195.55 799.466 81.9116C799.466 -31.727 891.918 -124.179 1005.56 -124.179C1119.19 -124.179 1211.65 -31.727 1211.65 81.9116C1211.65 195.55 1119.19 288 1005.56 288Z"
      fill="#DBE8F3"
    />
    <path
      d="M838.411 172.858H822.727C821.526 172.858 820.503 173.677 820.184 174.835C818.904 179.477 818.9 185.462 820.266 190.486C820.565 191.588 821.618 192.316 822.758 192.316H838.379C839.52 192.316 840.573 191.588 840.872 190.486C842.238 185.462 842.234 179.477 840.954 174.835C840.635 173.677 839.611 172.858 838.411 172.858Z"
      fill="white"
    />
    <path
      d="M832.232 192.316H828.905V172.858H832.232V192.316Z"
      fill="#A1C5E0"
    />
    <path
      d="M818.785 19.3457H803.102C801.901 19.3457 800.878 20.1647 800.559 21.3222C799.279 25.9644 799.275 31.9479 800.64 36.9732C800.941 38.0743 801.992 38.8032 803.133 38.8032H818.754C819.896 38.8032 820.948 38.0743 821.247 36.9732C822.614 31.9479 822.609 25.9644 821.329 21.3222C821.01 20.1647 819.986 19.3457 818.785 19.3457Z"
      fill="white"
    />
    <path d="M812.608 38.8029H809.28V19.3454H812.608V38.8029Z" fill="#A1C5E0" />
    <path
      d="M818.785 124.442H803.102C801.901 124.442 800.878 125.261 800.559 126.418C799.279 131.061 799.275 137.045 800.64 142.069C800.941 143.172 801.992 143.899 803.133 143.899H818.754C819.896 143.899 820.948 143.172 821.247 142.069C822.614 137.045 822.609 131.061 821.329 126.418C821.01 125.261 819.986 124.442 818.785 124.442Z"
      fill="white"
    />
    <path d="M812.608 143.899H809.28V124.442H812.608V143.899Z" fill="#A1C5E0" />
    <path
      d="M811.817 72.1814H796.134C794.933 72.1814 793.91 73.0004 793.591 74.1579C792.311 78.8001 792.307 84.7848 793.672 89.8101C793.973 90.9112 795.024 91.6389 796.165 91.6389H811.786C812.928 91.6389 813.98 90.9112 814.279 89.8101C815.646 84.7848 815.641 78.8001 814.361 74.1579C814.041 73.0004 813.018 72.1814 811.817 72.1814Z"
      fill="white"
    />
    <path d="M805.64 91.6385H802.312V72.1811H805.64V91.6385Z" fill="#A1C5E0" />
    <path
      d="M1172.7 172.858H1188.39C1189.59 172.858 1190.61 173.677 1190.93 174.835C1192.21 179.477 1192.21 185.462 1190.85 190.486C1190.55 191.588 1189.5 192.316 1188.35 192.316H1172.73C1171.59 192.316 1170.54 191.588 1170.24 190.486C1168.87 185.462 1168.88 179.477 1170.16 174.835C1170.48 173.677 1171.5 172.858 1172.7 172.858Z"
      fill="white"
    />
    <path
      d="M1182.21 192.316H1178.88V172.858H1182.21V192.316Z"
      fill="#A1C5E0"
    />
    <path
      d="M1192.33 19.3457H1208.01C1209.21 19.3457 1210.24 20.1647 1210.55 21.3222C1211.83 25.9644 1211.84 31.9479 1210.47 36.9732C1210.17 38.0743 1209.12 38.8032 1207.98 38.8032H1192.36C1191.22 38.8032 1190.17 38.0743 1189.87 36.9732C1188.5 31.9479 1188.5 25.9644 1189.78 21.3222C1190.1 20.1647 1191.13 19.3457 1192.33 19.3457Z"
      fill="white"
    />
    <path
      d="M1201.83 38.8029H1198.51V19.3454H1201.83V38.8029Z"
      fill="#A1C5E0"
    />
    <path
      d="M1192.33 124.442H1208.01C1209.21 124.442 1210.24 125.261 1210.55 126.418C1211.83 131.061 1211.84 137.045 1210.47 142.069C1210.17 143.172 1209.12 143.899 1207.98 143.899H1192.36C1191.22 143.899 1190.17 143.172 1189.87 142.069C1188.5 137.045 1188.5 131.061 1189.78 126.418C1190.1 125.261 1191.13 124.442 1192.33 124.442Z"
      fill="white"
    />
    <path
      d="M1201.83 143.899H1198.51V124.442H1201.83V143.899Z"
      fill="#A1C5E0"
    />
    <path
      d="M1199.3 72.1814H1214.98C1216.18 72.1814 1217.2 73.0004 1217.52 74.1579C1218.8 78.8001 1218.81 84.7848 1217.44 89.8101C1217.14 90.9112 1216.09 91.6389 1214.95 91.6389H1199.33C1198.19 91.6389 1197.13 90.9112 1196.83 89.8101C1195.47 84.7848 1195.47 78.8001 1196.75 74.1579C1197.07 73.0004 1198.1 72.1814 1199.3 72.1814Z"
      fill="white"
    />
    <path d="M1208.8 91.6385H1205.47V72.1811H1208.8V91.6385Z" fill="#A1C5E0" />
    <path
      d="M1010.63 78.3534H1000.41L829.399 304.227H845.15L1005.52 92.967L1010.63 78.3534Z"
      fill="#004975"
    />
    <path
      d="M1181.64 304.227L1010.63 78.3536H1005.56V93.0175L1165.89 304.227H1181.64Z"
      fill="#004975"
    />
    <path
      d="M1035.43 81.9102C1035.43 98.409 1022.05 111.783 1005.56 111.783C989.058 111.783 975.684 98.409 975.684 81.9102C975.684 65.4127 989.058 52.0383 1005.56 52.0383C1022.05 52.0383 1035.43 65.4127 1035.43 81.9102Z"
      fill="#005C84"
    />
    <path
      d="M1016.76 81.9101C1016.76 88.0977 1011.74 93.1134 1005.56 93.1134C999.37 93.1134 994.354 88.0977 994.354 81.9101C994.354 75.7237 999.37 70.7068 1005.56 70.7068C1011.74 70.7068 1016.76 75.7237 1016.76 81.9101Z"
      fill="#004975"
    />
    <path
      d="M736.072 101.902H667.552V403.232H736.072V101.902Z"
      fill="#005C84"
    />
    <path
      d="M197.708 -137.142C167.548 -137.142 146.784 -106.982 114.243 -106.982H11.7561C-9.85441 -106.982 -27.3738 -89.4625 -27.3738 -67.852C-48.9843 -67.852 -66.5038 -50.3326 -66.5038 -28.7221V15.3599H-35.5512C-35.5512 15.3599 11.7561 -15.2817 11.7561 -28.7221C24.5745 -28.7221 35.9531 -34.8857 43.0905 -44.4115L76.9394 23.183H243.614V-136.348L197.708 -137.142Z"
      fill="#C3E2C1"
    />
    <path
      d="M116.053 354.426H43.6051V-166.763L116.053 -237.941V354.426Z"
      fill="#A1C5E0"
    />
    <path
      d="M189.539 84.1482H236.013V-113.91H189.539V84.1482Z"
      fill="#0075B0"
    />
    <path
      d="M236.013 106.469H282.487V-113.912H236.013V106.469Z"
      fill="#005C84"
    />
    <path
      d="M116.054 106.469H236.013V-30.3058H116.054V106.469Z"
      fill="#0075B0"
    />
    <path d="M217.713 37.745H225.054V54.9258H217.713V37.745Z" fill="#6BA8D0" />
    <path
      d="M225.055 37.7451H217.714V20.5632H225.055V37.7451Z"
      fill="#005C84"
    />
    <path d="M225.055 20.5641H217.714V3.3833H225.055V20.5641Z" fill="#6BA8D0" />
    <path
      d="M217.713 -13.7974H225.054V3.38342H217.713V-13.7974Z"
      fill="#6BA8D0"
    />
    <path
      d="M198.475 -13.7974H205.816V3.38342H198.475V-13.7974Z"
      fill="#6BA8D0"
    />
    <path d="M205.816 20.5641H198.475V3.3833H205.816V20.5641Z" fill="#005C84" />
    <path
      d="M205.816 54.9269H198.475V37.7461H205.816V54.9269Z"
      fill="#005C84"
    />
    <path
      d="M205.816 37.7451H198.475V20.5632H205.816V37.7451Z"
      fill="#6BA8D0"
    />
    <path d="M205.816 72.1079H198.475V54.927H205.816V72.1079Z" fill="#6BA8D0" />
    <path d="M138.3 37.7451H130.96V20.5632H138.3V37.7451Z" fill="#6BA8D0" />
    <path d="M138.3 20.5641H130.96V3.3833H138.3V20.5641Z" fill="#005C84" />
    <path d="M138.3 54.9269H130.96V37.7461H138.3V54.9269Z" fill="#6BA8D0" />
    <path d="M130.96 54.927H138.3V72.1079H130.96V54.927Z" fill="#6BA8D0" />
    <path d="M130.96 72.1078H138.3V89.2898H130.96V72.1078Z" fill="#005C84" />
    <path d="M150.198 37.745H157.538V54.9258H150.198V37.745Z" fill="#005C84" />
    <path d="M150.198 54.927H157.538V72.1079H150.198V54.927Z" fill="#005C84" />
    <path
      d="M150.198 20.5641H157.538V37.7461H150.198V20.5641Z"
      fill="#6BA8D0"
    />
    <path d="M150.198 3.3833H157.538V20.5641H150.198V3.3833Z" fill="#005C84" />
    <path
      d="M282.486 24.9856H398.786V-269.389H282.486V24.9856Z"
      fill="#009FDA"
    />
    <path
      d="M417.732 106.469H485.216V-320.646H417.732V106.469Z"
      fill="#9FD18B"
    />
    <path
      d="M282.486 106.469H417.731V-78.372H282.486V106.469Z"
      fill="#009FDA"
    />
    <path
      d="M317.543 106.47C320.01 101.357 321.43 88.2312 321.43 82.1769C321.43 60.6672 303.991 43.2319 282.486 43.2319C262.169 43.2319 245.502 58.8036 243.72 78.6598C240.411 76.7757 236.591 75.6854 232.508 75.6854C227.133 75.6854 222.908 76.8394 218.323 80.6723C211.089 86.7182 203.701 91.824 196.81 91.824C188.718 91.824 182.159 98.3814 182.159 106.47L267.302 114.193L317.543 106.47Z"
      fill="#009FDA"
    />
    <path d="M404.523 -130.9H417.732V106.471H404.523V-130.9Z" fill="#C3E2C1" />
    <path
      d="M303.547 -7.34546H310.888V9.83533H303.547V-7.34546Z"
      fill="#005C84"
    />
    <path
      d="M303.547 9.83518H310.888V27.0161H303.547V9.83518Z"
      fill="#DBE8F3"
    />
    <path
      d="M323.363 -7.34546H330.703V9.83533H323.363V-7.34546Z"
      fill="#DBE8F3"
    />
    <path
      d="M783.519 4.83717L672.401 22.3878L671.286 15.332L782.404 -2.21864L783.519 4.83717Z"
      fill="#6BA8D0"
    />
    <path
      d="M726.673 14.6458C726.39 14.6458 726.137 14.444 726.084 14.1546L724.828 7.34979L724.818 -2.24447C724.818 -2.57589 725.087 -2.84486 725.419 -2.84486C725.75 -2.84486 726.019 -2.57589 726.019 -2.24447V7.24052L727.264 13.9361C727.324 14.2627 727.109 14.5749 726.783 14.6361C726.747 14.6434 726.709 14.6458 726.673 14.6458Z"
      fill="#003665"
    />
    <path
      d="M721.599 -1.00491L723.339 1.01361C724.434 2.28404 726.402 2.28404 727.499 1.01361L729.237 -1.00491C729.667 -1.50323 729.904 -2.13965 729.904 -2.79768V-14.3372H720.933V-2.79768C720.933 -2.13965 721.169 -1.50323 721.599 -1.00491Z"
      fill="#6BA8D0"
    />
    <path
      d="M791.666 -145.672H781.459V-150.875L791.79 -150.325C793.026 -150.259 793.993 -149.238 793.993 -148C793.993 -146.716 792.95 -145.672 791.666 -145.672ZM544.04 -163.509L560.442 -162.636V-145.672H544.04V-163.509ZM541.638 -126.644L532.095 -134.305L541.638 -141.967V-126.644ZM541.638 -106.313L532.095 -113.976L541.638 -121.635V-106.313ZM541.638 -85.983L532.095 -93.644L541.638 -101.305V-85.983ZM541.638 -65.6525L532.095 -73.3135L541.638 -80.9745V-65.6525ZM541.638 -45.322L532.095 -52.983L541.638 -60.6441V-45.322ZM541.638 -24.9916L532.095 -32.6526L541.638 -40.3136V-24.9916ZM541.638 -4.65993L532.095 -12.3209L541.638 -19.9831V-4.65993ZM541.638 15.6705L532.095 8.00835L541.638 0.348557V15.6705ZM541.638 36.001L532.095 28.34L541.638 20.679V36.001ZM541.638 56.3315L532.095 48.6705L541.638 41.0095V56.3315ZM541.638 76.6619L532.095 69.0009L541.638 61.34V76.6619ZM541.638 96.9924L532.095 89.3314L541.638 81.6704V96.9924ZM541.638 117.324L532.095 109.663L541.638 102.001V117.324ZM541.638 137.655L532.095 129.992L541.638 122.331V137.655ZM541.638 157.985L532.095 150.324L541.638 142.663V157.985ZM541.638 178.315L532.095 170.654L541.638 162.993V178.315ZM520.931 161.689H539.425L530.178 169.114L520.931 161.689ZM518.717 178.315V162.993L528.26 170.654L518.717 178.315ZM499.913 -145.672V-161.333L516.316 -163.437V-145.672H499.913ZM443.499 -148.491V-151.619C443.499 -153.032 444.558 -154.236 445.961 -154.416L459.903 -156.204V-145.672H446.319C444.765 -145.672 443.499 -146.936 443.499 -148.491ZM478.707 -145.672H462.305V-156.511L478.707 -158.615V-145.672ZM481.109 -158.922L497.512 -161.026V-145.672H481.109V-158.922ZM530.179 -192.681C531.708 -192.681 533.144 -192.087 534.223 -191.006C535.159 -190.07 535.703 -188.863 535.838 -187.564L530.217 -182.964L524.514 -187.497C524.789 -190.397 527.209 -192.681 530.179 -192.681ZM532.095 -154.637L541.638 -162.298V-146.974L532.095 -154.637ZM520.931 -143.27H539.425L530.178 -135.845L520.931 -143.27ZM520.931 -125.341L530.178 -132.766L539.425 -125.341H520.931ZM520.931 -122.939H539.425L530.178 -115.515L520.931 -122.939ZM520.931 -105.011L530.178 -112.435L539.425 -105.011H520.931ZM520.931 -102.609H539.425L530.178 -95.1846L520.931 -102.609ZM520.931 -84.6801L530.178 -92.1046L539.425 -84.6801H520.931ZM520.931 -82.2786H539.425L530.178 -74.8529L520.931 -82.2786ZM520.931 -64.3485L530.178 -71.7729L539.425 -64.3485H520.931ZM520.931 -61.9469H539.425L530.178 -54.5225L520.931 -61.9469ZM520.931 -44.018L530.178 -51.4425L539.425 -44.018H520.931ZM520.931 -41.6164H539.425L530.178 -34.192L520.931 -41.6164ZM520.931 -23.6875L530.178 -31.112L539.425 -23.6875H520.931ZM520.931 -21.286H539.425L530.178 -13.8615L520.931 -21.286ZM520.931 -3.35707L530.178 -10.7815L539.425 -3.35707H520.931ZM520.931 -0.95549H539.425L530.178 6.46893L520.931 -0.95549ZM520.931 16.9734L530.178 9.54897L539.425 16.9734H520.931ZM520.931 19.375H539.425L530.178 26.7994L520.931 19.375ZM520.931 37.3039L530.178 29.8794L539.425 37.3039H520.931ZM520.931 39.7054H539.425L530.178 47.1299L520.931 39.7054ZM520.931 57.6355L530.178 50.2099L539.425 57.6355H520.931ZM520.931 60.0371H539.425L530.178 67.4615L520.931 60.0371ZM520.931 77.966L530.178 70.5415L539.425 77.966H520.931ZM520.931 80.3676H539.425L530.178 87.792L520.931 80.3676ZM520.931 98.2965L530.178 90.872L539.425 98.2965H520.931ZM520.931 100.698H539.425L530.178 108.122L520.931 100.698ZM520.931 118.627L530.178 111.202L539.425 118.627H520.931ZM520.931 121.028H539.425L530.178 128.453L520.931 121.028ZM520.931 138.957L530.178 131.533L539.425 138.957H520.931ZM520.931 141.359H539.425L530.178 148.783L520.931 141.359ZM530.178 151.863L539.425 159.288H520.931L530.178 151.863ZM518.717 142.663L528.26 150.324L518.717 157.985V142.663ZM528.26 129.992L518.717 137.655V122.331L528.26 129.992ZM528.26 109.663L518.717 117.324V102.001L528.26 109.663ZM528.26 89.3314L518.717 96.9924V81.6704L528.26 89.3314ZM528.26 69.0009L518.717 76.6619V61.34L528.26 69.0009ZM528.26 48.6705L518.717 56.3315V41.0095L528.26 48.6705ZM528.26 28.34L518.717 36.001V20.679L528.26 28.34ZM528.26 8.00835L518.717 15.6705V0.348557L528.26 8.00835ZM528.26 -12.3209L518.717 -4.65993V-19.9831L528.26 -12.3209ZM528.26 -32.6526L518.717 -24.9916V-40.3136L528.26 -32.6526ZM528.26 -52.983L518.717 -45.322V-60.6441L528.26 -52.983ZM528.26 -73.3135L518.717 -65.6525V-80.9745L528.26 -73.3135ZM528.26 -93.644L518.717 -85.983V-101.305L528.26 -93.644ZM528.26 -113.976L518.717 -106.313V-121.635L528.26 -113.976ZM518.717 -141.967L528.26 -134.305L518.717 -126.644V-141.967ZM530.178 -153.096L539.425 -145.672H520.931L530.178 -153.096ZM528.26 -154.637L518.717 -146.974V-162.298L528.26 -154.637ZM523.256 -163.602C523.258 -163.602 523.258 -163.6 523.259 -163.6L523.26 -163.602H523.357C523.358 -163.602 523.358 -163.6 523.36 -163.6C523.36 -163.6 523.361 -163.602 523.362 -163.602H537.088C537.091 -163.602 537.094 -163.6 537.097 -163.6H537.098C537.1 -163.6 537.101 -163.602 537.104 -163.602L539.427 -163.603L530.178 -156.176L520.931 -163.6L523.256 -163.602ZM528.216 -170.327L524.46 -167.254V-173.314L528.216 -170.327ZM535.133 -175.99L530.117 -171.883L525.221 -175.774L530.239 -179.879L535.133 -175.99ZM535.897 -178.451L532.141 -181.436L535.897 -184.51V-178.451ZM533.656 -166.002H526.722L530.139 -168.799L533.656 -166.002ZM532.04 -170.355L535.897 -173.51V-167.289L532.04 -170.355ZM528.315 -181.409L524.46 -178.252V-184.474L528.315 -181.409ZM763.24 -151.844L779.057 -151.002V-145.672H763.24V-151.844ZM745.023 -152.813L760.839 -151.971V-145.672H745.023V-152.813ZM726.805 -153.783L742.622 -152.941V-145.672H726.805V-153.783ZM708.587 -154.752L724.403 -153.91V-145.672H708.587V-154.752ZM690.369 -155.722L706.185 -154.879V-145.672H690.369V-155.722ZM672.151 -156.691L687.968 -155.849V-145.672H672.151V-156.691ZM653.933 -157.66L669.75 -156.818V-145.672H653.933V-157.66ZM635.716 -158.63L651.531 -157.789V-145.672H635.716V-158.63ZM617.498 -159.599L633.314 -158.758V-145.672H617.498V-159.599ZM599.279 -160.57L615.096 -159.728V-145.672H599.279V-160.57ZM578.661 -145.672H562.844V-162.508L578.661 -161.666V-145.672ZM581.062 -161.539L596.878 -160.697V-145.672H581.062V-161.539ZM791.917 -152.723L561.643 -164.975H561.642L543.069 -165.964C542.972 -165.984 542.877 -165.984 542.778 -165.979L542.348 -166.002H538.299L538.301 -186.962C538.301 -191.439 534.657 -195.083 530.179 -195.083C525.701 -195.083 522.058 -191.439 522.058 -186.962V-166.002H517.517C517.477 -166.002 517.436 -165.998 517.395 -165.995C517.391 -165.994 517.387 -165.994 517.382 -165.994C517.376 -165.992 517.37 -165.992 517.364 -165.992L445.655 -156.797C443.057 -156.464 441.098 -154.238 441.098 -151.619V-148.491C441.098 -145.613 443.44 -143.27 446.319 -143.27H516.316V180.819C516.316 180.873 516.34 180.92 516.347 180.972C516.358 181.054 516.368 181.134 516.396 181.214C516.424 181.293 516.466 181.363 516.509 181.434C516.537 181.478 516.546 181.529 516.581 181.571C516.593 181.588 516.612 181.592 516.627 181.608C516.711 181.702 516.812 181.775 516.92 181.839C516.958 181.861 516.988 181.894 517.028 181.912C517.178 181.979 517.341 182.02 517.517 182.02H517.518C517.663 182.02 517.808 181.987 517.948 181.933C517.999 181.913 518.043 181.882 518.091 181.854C518.151 181.822 518.213 181.8 518.268 181.756L530.178 172.194L542.087 181.756C542.142 181.8 542.206 181.822 542.266 181.855C542.314 181.882 542.356 181.914 542.407 181.933C542.547 181.987 542.691 182.02 542.838 182.02H542.839C543.014 182.02 543.177 181.979 543.328 181.912C543.367 181.894 543.397 181.861 543.434 181.839C543.545 181.775 543.645 181.702 543.729 181.608C543.742 181.592 543.762 181.588 543.775 181.571C543.808 181.529 543.819 181.478 543.846 181.434C543.889 181.363 543.932 181.293 543.959 181.214C543.988 181.134 543.998 181.054 544.008 180.972C544.016 180.92 544.04 180.873 544.04 180.819V-143.27H791.666C794.274 -143.27 796.395 -145.392 796.395 -148C796.395 -150.514 794.428 -152.588 791.917 -152.723Z"
      fill="#E9C130"
    />
    <path
      d="M116.054 181.323H667.552V200.461H116.054V181.323Z"
      fill="#F2DB61"
    />
    <path
      d="M652.137 177.767H655.216V170.711H652.137V177.767Z"
      fill="#004975"
    />
    <path
      d="M655.743 177.552L653.237 175.455V171.925C653.237 171.925 654.053 171.786 654.847 171.47C655.792 171.095 655.66 169.728 654.66 169.551C651.574 169.002 648.441 168.831 644.98 168.697C643.264 168.631 641.575 168.195 640.038 167.429C629.522 162.19 624.869 161.034 609.426 161.034C601.812 161.034 595.154 164.026 585.322 170.317C577.208 170.317 564.71 171.603 558.956 174.925C558.4 175.246 558.064 175.841 558.064 176.483V180.064L557.635 180.527C557.334 180.854 557.166 181.283 557.166 181.728V184.456C557.166 185.066 557.501 185.554 558.082 185.738L564.8 187.724H632.228L639.944 186.583H651.437C653.264 186.583 654.961 185.634 655.918 184.078L656.089 183.803C656.247 183.544 656.331 183.246 656.331 182.942V178.812C656.331 178.325 656.116 177.864 655.743 177.552Z"
      fill="white"
    />
    <path
      d="M609.976 162.794C604.522 162.794 599.591 164.466 593.063 168.297C592.129 168.846 592.52 170.296 593.602 170.275C604.31 170.079 623.262 169.233 633.341 168.998C634.448 168.971 634.767 167.451 633.761 166.987C627.077 163.907 620.316 162.794 609.976 162.794Z"
      fill="#004975"
    />
    <path
      d="M581.359 184.466C581.359 188.431 578.145 191.644 574.18 191.644C570.217 191.644 567.002 188.431 567.002 184.466C567.002 180.502 570.217 177.288 574.18 177.288C578.145 177.288 581.359 180.502 581.359 184.466Z"
      fill="#000F46"
    />
    <path
      d="M578.584 184.466C578.584 186.897 576.612 188.869 574.18 188.869C571.75 188.869 569.778 186.897 569.778 184.466C569.778 182.034 571.75 180.062 574.18 180.062C576.612 180.062 578.584 182.034 578.584 184.466Z"
      fill="#A1C5E0"
    />
    <path
      d="M643.286 184.466C643.286 188.431 640.073 191.644 636.108 191.644C632.144 191.644 628.929 188.431 628.929 184.466C628.929 180.502 632.144 177.288 636.108 177.288C640.073 177.288 643.286 180.502 643.286 184.466Z"
      fill="#000F46"
    />
    <path
      d="M640.511 184.466C640.511 186.897 638.539 188.869 636.107 188.869C633.677 188.869 631.705 186.897 631.705 184.466C631.705 182.034 633.677 180.062 636.107 180.062C638.539 180.062 640.511 182.034 640.511 184.466Z"
      fill="#A1C5E0"
    />
    <path
      d="M558.064 176.483H562.221C562.739 176.483 563.234 176.7 563.586 177.081L564.282 177.835C564.645 178.229 564.366 178.865 563.831 178.865H558.064V176.483Z"
      fill="white"
    />
    <path
      d="M518.743 169.274C518.743 168.213 519.604 167.351 520.666 167.351C521.728 167.351 522.589 168.213 522.589 169.274V170.812C522.589 171.875 521.728 172.735 520.666 172.735C519.604 172.735 518.743 171.875 518.743 170.812V169.274Z"
      fill="#004975"
    />
    <path
      d="M468.605 185.061L474.751 186.112H515.931L523.782 183.996C524.975 183.674 525.755 182.501 525.579 181.279C525.075 177.765 523.33 175.078 520.666 172.735V165.352C520.666 161.585 517.612 158.531 513.845 158.531H498.204C489.496 158.531 479.799 162.771 471.858 169.158C470.634 170.143 469.963 171.661 469.963 173.23V176.533C468.297 177.644 467.062 179.683 466.592 182.288C466.356 183.595 467.296 184.837 468.605 185.061Z"
      fill="#DBE8F3"
    />
    <path
      d="M469.963 176.534V173.231C469.963 172.497 470.122 171.78 470.405 171.117C471.705 171.336 472.715 172.418 472.715 173.782C472.715 175.302 471.483 176.534 469.963 176.534Z"
      fill="white"
    />
    <path
      d="M475.976 169.861C482.995 164.607 491.565 161.119 499.261 161.119H505.858C505.86 161.125 506.196 161.131 506.576 161.139C507.822 165.48 507.541 169.632 505.314 173.12H474.311C474.34 171.862 474.921 170.651 475.976 169.861Z"
      fill="#004975"
    />
    <path
      d="M523.529 184.458C523.529 188.427 520.312 191.644 516.343 191.644C512.373 191.644 509.156 188.427 509.156 184.458C509.156 180.489 512.373 177.273 516.343 177.273C520.312 177.273 523.529 180.489 523.529 184.458Z"
      fill="#000F46"
    />
    <path
      d="M519.974 184.458C519.974 186.463 518.349 188.089 516.343 188.089C514.337 188.089 512.711 186.463 512.711 184.458C512.711 182.453 514.337 180.827 516.343 180.827C518.349 180.827 519.974 182.453 519.974 184.458Z"
      fill="#A1C5E0"
    />
    <path
      d="M482.789 184.458C482.789 188.427 479.573 191.644 475.604 191.644C471.635 191.644 468.419 188.427 468.419 184.458C468.419 180.489 471.635 177.273 475.604 177.273C479.573 177.273 482.789 180.489 482.789 184.458Z"
      fill="#000F46"
    />
    <path
      d="M479.236 184.458C479.236 186.463 477.61 188.089 475.605 188.089C473.598 188.089 471.972 186.463 471.972 184.458C471.972 182.453 473.598 180.827 475.605 180.827C477.61 180.827 479.236 182.453 479.236 184.458Z"
      fill="#A1C5E0"
    />
    <path
      d="M272.693 172.609C272.342 171.743 271.341 171.107 270.296 170.924C268.799 170.661 266.766 170.451 264.082 170.137C262.51 169.954 260.883 169.549 259.467 168.843C249.801 164.027 245.521 162.964 231.322 162.964C224.322 162.964 218.2 165.716 209.158 171.5C201.698 171.5 197.096 172.778 191.449 174.592C189.877 175.098 188.204 175.762 186.854 176.44C186.059 176.839 185.837 177.962 186.17 178.524C186.505 179.086 186.545 179.61 186.545 180.246V182.381C186.545 183.058 186.203 183.76 185.871 184.29C185.497 184.889 185.71 185.618 186.246 185.787L192.087 187.506H252.288L259.385 186.457H269.951C271.631 186.457 273.192 185.586 274.073 184.154L274.229 183.901C274.375 183.663 274.452 183.389 274.452 183.11V177.569C273.778 175.435 273.198 173.855 272.693 172.609Z"
      fill="#0075B0"
    />
    <path
      d="M272.858 173.02H269.398C268.275 173.02 267.264 173.92 266.815 174.312C266.366 174.705 266.534 175.21 267.321 175.21H273.669C273.38 174.381 273.108 173.658 272.858 173.02Z"
      fill="#004975"
    />
    <path
      d="M231.828 164.583C226.006 164.583 220.834 166.653 213.258 171.5C223.046 171.5 249.207 170.229 257.174 170.229C249.771 166.026 243.122 164.583 231.828 164.583Z"
      fill="#004975"
    />
    <path
      d="M188.702 176.576C189.817 176.103 191.912 175.349 193.403 174.986C195.634 174.446 195.6 177.963 193.64 177.963H188.871C187.992 177.963 187.973 176.886 188.702 176.576Z"
      fill="white"
    />
    <path
      d="M209.643 184.51C209.643 188.45 206.449 191.644 202.509 191.644C198.569 191.644 195.375 188.45 195.375 184.51C195.375 180.571 198.569 177.376 202.509 177.376C206.449 177.376 209.643 180.571 209.643 184.51Z"
      fill="#000F46"
    />
    <path
      d="M206.884 184.51C206.884 186.926 204.926 188.886 202.509 188.886C200.093 188.886 198.133 186.926 198.133 184.51C198.133 182.093 200.093 180.135 202.509 180.135C204.926 180.135 206.884 182.093 206.884 184.51Z"
      fill="#A1C5E0"
    />
    <path
      d="M263.889 184.51C263.889 188.45 260.695 191.644 256.755 191.644C252.815 191.644 249.621 188.45 249.621 184.51C249.621 180.571 252.815 177.376 256.755 177.376C260.695 177.376 263.889 180.571 263.889 184.51Z"
      fill="#000F46"
    />
    <path
      d="M261.131 184.51C261.131 186.926 259.172 188.886 256.756 188.886C254.34 188.886 252.38 186.926 252.38 184.51C252.38 182.093 254.34 180.135 256.756 180.135C259.172 180.135 261.131 182.093 261.131 184.51Z"
      fill="#A1C5E0"
    />
    <path
      d="M499.261 76.7417H496.576V64.2345H499.261V76.7417Z"
      fill="#000F46"
    />
    <path
      d="M492.331 81.9575C492.331 84.9691 489.888 87.4115 486.877 87.4115C483.865 87.4115 481.423 84.9691 481.423 81.9575C481.423 78.946 483.865 76.5036 486.877 76.5036C489.888 76.5036 492.331 78.946 492.331 81.9575Z"
      fill="#000F46"
    />
    <path
      d="M514.411 81.9575C514.411 84.9691 511.97 87.4115 508.957 87.4115C505.945 87.4115 503.504 84.9691 503.504 81.9575C503.504 78.946 505.945 76.5036 508.957 76.5036C511.97 76.5036 514.411 78.946 514.411 81.9575Z"
      fill="#000F46"
    />
    <path
      d="M505.279 90.6814H490.555C488.523 90.6814 486.877 89.0339 486.877 87.0034V76.912C486.877 74.8803 488.523 73.234 490.555 73.234H505.279C507.311 73.234 508.957 74.8803 508.957 76.912V87.0034C508.957 89.0339 507.311 90.6814 505.279 90.6814Z"
      fill="#DBE8F3"
    />
    <path
      d="M559.601 48.4272H556.916V35.9199H559.601V48.4272Z"
      fill="#000F46"
    />
    <path
      d="M571.605 32.8851C567.105 32.8851 560.694 33.7533 558.288 34.9553C555.882 33.7533 549.471 32.8851 544.971 32.8851C542.699 32.8851 540.827 34.2444 540.827 35.9195C540.827 37.5958 542.557 38.9551 544.971 38.9551C549.471 38.9551 555.882 38.0881 558.288 36.8849C560.694 38.0881 567.105 38.9551 571.605 38.9551C573.877 38.9551 575.777 37.5958 575.777 35.9195C575.777 34.2444 574.02 32.8851 571.605 32.8851Z"
      fill="white"
    />
    <path
      d="M438.917 48.4272H436.232V35.9199H438.917V48.4272Z"
      fill="#000F46"
    />
    <path
      d="M450.863 32.8851C446.361 32.8851 439.952 33.7533 437.546 34.9553C435.14 33.7533 428.729 32.8851 424.229 32.8851C421.815 32.8851 420.057 34.2444 420.057 35.9195C420.057 37.5958 421.957 38.9551 424.229 38.9551C428.729 38.9551 435.14 38.0881 437.546 36.8849C439.952 38.0881 446.361 38.9551 450.863 38.9551C453.278 38.9551 455.007 37.5958 455.007 35.9195C455.007 34.2444 453.135 32.8851 450.863 32.8851Z"
      fill="white"
    />
    <path
      d="M532.441 84.1841L533.58 91.8391C533.718 92.7625 533.457 93.6583 532.85 94.3655C532.24 95.0692 531.393 95.4582 530.462 95.4582H465.371C464.44 95.4582 463.594 95.0692 462.987 94.3631C462.376 93.6571 462.115 92.7601 462.253 91.8391L463.393 84.1841C464.396 77.4153 467.219 71.1676 471.557 65.9442C477.329 67.9087 483.383 68.9185 489.482 68.9185H506.352C512.452 68.9185 518.505 67.9087 524.276 65.9442C528.613 71.1676 531.436 77.4153 532.441 84.1841ZM559.244 47.6082H532.409H506.915H488.919H463.425H436.59C434.541 47.6082 432.881 49.2677 432.881 51.3162C432.881 53.3648 434.541 55.0267 436.59 55.0267H455.905C455.903 55.0627 455.898 55.0975 455.898 55.1347C455.898 58.3324 457.919 61.1819 460.939 62.2386L465.131 63.7059C460.875 69.4373 458.079 76.0872 457.018 83.2367L455.879 90.8917C455.47 93.6559 456.279 96.4561 458.107 98.5707C459.495 100.182 461.36 101.265 463.402 101.694C463.401 101.74 463.388 101.783 463.388 101.828C463.388 105.032 465.985 107.628 469.188 107.628C472.366 107.628 474.941 105.071 474.98 101.902H520.854C520.893 105.071 523.468 107.628 526.645 107.628C529.849 107.628 532.445 105.032 532.445 101.828C532.445 101.783 532.433 101.74 532.432 101.694C534.475 101.265 536.341 100.182 537.729 98.5731C539.555 96.4561 540.363 93.6571 539.953 90.8917L538.815 83.2367C537.755 76.0872 534.959 69.4373 530.703 63.7059L534.894 62.2386C537.913 61.1819 539.935 58.3324 539.935 55.1347C539.935 55.0975 539.931 55.0627 539.929 55.0267H559.244C561.292 55.0267 562.953 53.3648 562.953 51.3162C562.953 49.2677 561.292 47.6082 559.244 47.6082Z"
      fill="white"
    />
    <path
      d="M522.914 147.137H472.92C469.311 147.137 466.384 144.21 466.384 140.601V123.708C466.384 120.097 469.311 117.171 472.92 117.171H522.914C526.523 117.171 529.449 120.097 529.449 123.708V140.601C529.449 144.21 526.523 147.137 522.914 147.137Z"
      fill="#0075B0"
    />
    <path d="M521.868 133.732H508.175V123.982H521.868V133.732Z" fill="white" />
    <path
      d="M481.87 118.514C481.127 118.514 480.527 117.913 480.527 117.171V95.4574C480.527 94.7153 481.127 94.115 481.87 94.115C482.612 94.115 483.212 94.7153 483.212 95.4574V117.171C483.212 117.913 482.612 118.514 481.87 118.514Z"
      fill="#000F46"
    />
    <path
      d="M513.964 118.514C513.222 118.514 512.622 117.913 512.622 117.171V95.4574C512.622 94.7153 513.222 94.115 513.964 94.115C514.706 94.115 515.307 94.7153 515.307 95.4574V117.171C515.307 117.913 514.706 118.514 513.964 118.514Z"
      fill="#000F46"
    />
    <path
      d="M736.073 173.871H724.251C723.588 173.871 723.05 173.333 723.05 172.67C723.05 172.007 723.588 171.469 724.251 171.469H736.073C736.736 171.469 737.273 172.007 737.273 172.67C737.273 173.333 736.736 173.871 736.073 173.871Z"
      fill="#000F46"
    />
    <path
      d="M736.073 149.603H724.251C723.588 149.603 723.05 149.065 723.05 148.402C723.05 147.739 723.588 147.201 724.251 147.201H736.073C736.736 147.201 737.273 147.739 737.273 148.402C737.273 149.065 736.736 149.603 736.073 149.603Z"
      fill="#000F46"
    />
    <path
      d="M721.642 188.376H715.969C713.092 188.376 710.76 186.044 710.76 183.166V137.906C710.76 135.029 713.092 132.696 715.969 132.696H721.642C724.519 132.696 726.852 135.029 726.852 137.906V183.166C726.852 186.044 724.519 188.376 721.642 188.376Z"
      fill="#009FDA"
    />
    <path
      d="M831.816 98.687V403.232H763.487V59.0828L831.816 98.687Z"
      fill="#6BA8D0"
    />
    <path d="M763.487 63.222H770.586V60.3378H763.487V63.222Z" fill="#2890C0" />
    <path d="M763.487 80.368H800.153V77.4838H763.487V80.368Z" fill="#2890C0" />
    <path
      d="M763.487 97.5116H829.689V94.6273H763.487V97.5116Z"
      fill="#2890C0"
    />
    <path
      d="M763.487 114.656H831.817V111.772H763.487V114.656Z"
      fill="#2890C0"
    />
    <path
      d="M763.487 131.801H831.817V128.917H763.487V131.801Z"
      fill="#2890C0"
    />
    <path
      d="M763.487 148.946H831.817V146.062H763.487V148.946Z"
      fill="#2890C0"
    />
    <path
      d="M763.487 166.091H831.817V163.207H763.487V166.091Z"
      fill="#2890C0"
    />
    <path d="M763.487 183.234H831.817V180.35H763.487V183.234Z" fill="#2890C0" />
    <path
      d="M763.487 200.379H831.817V197.495H763.487V200.379Z"
      fill="#2890C0"
    />
    <path
      d="M736.073 43.1936V403.232H763.486V59.0823L736.073 43.1936Z"
      fill="#A1C5E0"
    />
    <path
      d="M736.073 142.384L763.486 114.969V59.0823L736.073 43.1936V142.384Z"
      fill="#DBE8F3"
    />
    <path
      d="M1054.94 183.219V478.151H1184.06V108.379L1054.94 183.219Z"
      fill="#6BA8D0"
    />
    <path
      d="M1125.1 240.054V172.505C1125.1 165.753 1130.58 160.28 1137.33 160.28H1327.65C1334.4 160.28 1339.87 165.753 1339.87 172.505V240.054C1339.87 246.806 1334.4 252.278 1327.65 252.278H1137.33C1130.58 252.278 1125.1 246.806 1125.1 240.054Z"
      fill="#E95C92"
    />
    <path
      d="M1173.08 448.075H1213.58V135.134H1173.08C1166.04 135.134 1160.33 140.845 1160.33 147.889V435.319C1160.33 442.364 1166.04 448.075 1173.08 448.075Z"
      fill="#000F46"
    />
    <path
      d="M116.053 -30.3057H-35.5505V17.7281H-66.5043V77.7709H-96.7965V1192.73H116.053V-30.3057Z"
      fill="#004975"
    />
    <path
      d="M55.6422 173.243H86.8613V157.248H55.6422V173.243Z"
      fill="#0075B0"
    />
    <path
      d="M23.4984 61.2803H54.7176V45.2859H23.4984V61.2803Z"
      fill="#0075B0"
    />
    <path d="M55.378 109.265H86.5972V93.2704H55.378V109.265Z" fill="#0075B0" />
    <path
      d="M24.1588 141.254H55.3779V125.259H24.1588V141.254Z"
      fill="#0075B0"
    />
    <path
      d="M-6.6629 125.259H24.5563V109.265H-6.6629V125.259Z"
      fill="#0075B0"
    />
    <path
      d="M-5.98096 205.233H25.237V189.238H-5.98096V205.233Z"
      fill="#0075B0"
    />
    <path
      d="M55.6422 205.233H86.8613V189.238H55.6422V205.233Z"
      fill="#0075B0"
    />
    <path
      d="M-7.05914 77.2749H24.1588V61.2804H-7.05914V77.2749Z"
      fill="#0075B0"
    />
    <path
      d="M26.3574 1104.72H22.7551V-30.3044H26.3574V1104.72Z"
      fill="#000F46"
    />
    <path
      d="M88.2651 1104.72H84.6627V-30.3044H88.2651V1104.72Z"
      fill="#000F46"
    />
    <path
      d="M57.3112 1104.72H53.7089V-30.3044H57.3112V1104.72Z"
      fill="#000F46"
    />
    <path
      d="M1297.61 -246.303H1184.05V1288.37H1297.61V-246.303Z"
      fill="#003665"
    />
    <path
      d="M1251.25 -264.462H1184.06V869.778H1251.25V-264.462Z"
      fill="#A1C5E0"
    />
    <path
      d="M1184.06 208.378H1194.36V-43.1041H1210.34V23.2296L1226.51 39.4066V78.976H1251.25V433.816L1184.06 419.144L1184.06 208.378Z"
      fill="#6BA8D0"
    />
    <path
      d="M1443.91 794.784H1317V318.019H1443.91V794.784ZM1251.25 869.778H1602.62V-264.462H1251.25V869.778Z"
      fill="#004975"
    />
    <path
      d="M1317 94.6274L1564.22 -152.601L1598.26 -46.963L1443.91 107.386H1317V94.6274Z"
      fill="#003665"
    />
    <path d="M1317 312.694H1443.91V-49.7872H1317V312.694Z" fill="#005C84" />
    <path d="M1317 169.622H1443.91V-49.7873H1317V169.622Z" fill="#004975" />
    <path d="M1317 107.386H1443.91V94.6273H1317V107.386Z" fill="#DBE8F3" />
    <path d="M1317 94.6273H1443.91V-257.113H1317V94.6273Z" fill="#A1C5E0" />
    <path
      d="M1443.91 -117.802H1415.63V-257.113L1381.14 -222.623V1.37256H1365.54V-58.1155H1348.2V-141.399L1317 -174.713V94.6278H1443.91V-117.802Z"
      fill="#6BA8D0"
    />
    <path d="M1443.91 -32.2843L1317 94.6277H1443.91V-32.2843Z" fill="#2890C0" />
    <path d="M1432.3 94.6273H1428.7V-37.2318H1432.3V94.6273Z" fill="#000F46" />
    <path d="M1418 94.6273H1414.4V-37.2318H1418V94.6273Z" fill="#000F46" />
    <path d="M1403.7 94.6273H1400.1V-37.2318H1403.7V94.6273Z" fill="#000F46" />
    <path d="M1389.4 94.6273H1385.8V-37.2318H1389.4V94.6273Z" fill="#000F46" />
    <path d="M1375.1 94.6273H1371.5V-37.2318H1375.1V94.6273Z" fill="#000F46" />
    <path d="M1360.8 94.6273H1357.2V-37.2318H1360.8V94.6273Z" fill="#000F46" />
    <path d="M1346.5 94.6273H1342.9V-37.2318H1346.5V94.6273Z" fill="#000F46" />
    <path d="M1332.2 94.6273H1328.6V-37.2318H1332.2V94.6273Z" fill="#000F46" />
    <path
      d="M1264.01 -247.882H1251.25V483.992H1264.01V-247.882Z"
      fill="#000F46"
    />
    <path
      d="M1184.06 107.386H1264.01V94.6273H1184.06V107.386Z"
      fill="#000F46"
    />
    <path d="M305.08 481.008H436.203V159.776H305.08V481.008Z" fill="#005C84" />
    <path
      d="M373.655 189.783H367.629V255.517H373.655V189.783Z"
      fill="#004975"
    />
    <path d="M344.546 189.783H358.78V222.65H344.546V189.783Z" fill="#DBE8F3" />
    <path d="M382.504 189.783H396.738V222.65H382.504V189.783Z" fill="#6BA8D0" />
    <path d="M336.761 186.271H404.523V82.605H336.761V186.271Z" fill="#005C84" />
    <path d="M372.442 88.7952H368.84V19.3755H372.442V88.7952Z" fill="#005C84" />
    <path d="M436.203 149.218H305.08V154.497H436.203V149.218Z" fill="#6BA8D0" />
    <path d="M436.203 154.497H305.08V159.776H436.203V154.497Z" fill="#004975" />
    <path d="M436.203 137.459H305.08V142.738H436.203V137.459Z" fill="#DBE8F3" />
    <path
      d="M431.878 149.219H430.677V142.739H431.878V149.219Z"
      fill="#000F46"
    />
    <path d="M422.55 149.219H421.349V142.739H422.55V149.219Z" fill="#000F46" />
    <path d="M413.221 149.219H412.02V142.739H413.221V149.219Z" fill="#000F46" />
    <path
      d="M403.892 149.219H402.691V142.739H403.892V149.219Z"
      fill="#000F46"
    />
    <path
      d="M394.563 149.219H393.363V142.739H394.563V149.219Z"
      fill="#000F46"
    />
    <path
      d="M385.236 149.219H384.035V142.739H385.236V149.219Z"
      fill="#000F46"
    />
    <path
      d="M375.907 149.219H374.706V142.739H375.907V149.219Z"
      fill="#000F46"
    />
    <path
      d="M366.578 149.219H365.377V142.739H366.578V149.219Z"
      fill="#000F46"
    />
    <path
      d="M357.249 149.219H356.048V142.739H357.249V149.219Z"
      fill="#000F46"
    />
    <path d="M347.92 149.219H346.719V142.739H347.92V149.219Z" fill="#000F46" />
    <path d="M338.591 149.219H337.39V142.739H338.591V149.219Z" fill="#000F46" />
    <path
      d="M329.263 149.219H328.063V142.739H329.263V149.219Z"
      fill="#000F46"
    />
    <path
      d="M319.935 149.219H318.734V142.739H319.935V149.219Z"
      fill="#000F46"
    />
    <path
      d="M310.606 149.219H309.405V142.739H310.606V149.219Z"
      fill="#000F46"
    />
    <path
      d="M404.523 72.0478H336.761V77.3264H404.523V72.0478Z"
      fill="#6BA8D0"
    />
    <path
      d="M404.523 77.3265H336.761V82.6051H404.523V77.3265Z"
      fill="#004975"
    />
    <path
      d="M404.523 60.2898H336.761V65.5685H404.523V60.2898Z"
      fill="#DBE8F3"
    />
    <path
      d="M400.185 72.0479H398.985V65.5684H400.185V72.0479Z"
      fill="#000F46"
    />
    <path
      d="M391.916 72.0479H390.715V65.5684H391.916V72.0479Z"
      fill="#000F46"
    />
    <path
      d="M383.646 72.0479H382.445V65.5684H383.646V72.0479Z"
      fill="#000F46"
    />
    <path
      d="M375.377 72.0479H374.176V65.5684H375.377V72.0479Z"
      fill="#000F46"
    />
    <path
      d="M367.107 72.0479H365.907V65.5684H367.107V72.0479Z"
      fill="#000F46"
    />
    <path
      d="M358.838 72.0479H357.637V65.5684H358.838V72.0479Z"
      fill="#000F46"
    />
    <path
      d="M350.568 72.0479H349.367V65.5684H350.568V72.0479Z"
      fill="#000F46"
    />
    <path
      d="M342.299 72.0479H341.098V65.5684H342.299V72.0479Z"
      fill="#000F46"
    />
    <path
      d="M1179.73 -269.787V-246.301H1230.42C1250.6 -246.301 1272.22 -231.358 1293.4 -213.656C1306.82 -202.436 1319.19 -199.06 1334.93 -199.06C1346.26 -199.06 1356.89 -201.96 1366.23 -206.966C1374.16 -130.345 1438.92 -70.5974 1517.64 -70.5974H1521.12C1566.13 -70.5974 1602.62 -34.1092 1602.62 10.901H1631V-269.787H1179.73Z"
      fill="white"
    />
    <path
      d="M-0.0404663 171.634C-7.04704 171.634 -14.5555 166.446 -21.9103 160.299C-26.5706 156.401 -30.8658 155.229 -36.3305 155.229C-40.4805 155.229 -44.3638 156.337 -47.7272 158.253C-49.5404 138.067 -66.4822 122.238 -87.1357 122.238C-106.054 122.238 -117.951 132.037 -125.177 146.05V201.416H-0.0404663C8.1861 201.416 14.8528 194.749 14.8528 186.523C14.8528 178.301 8.1861 171.634 -0.0404663 171.634Z"
      fill="white"
    />
    <path
      d="M1490.57 146.133V136.008H1485.68V-73.9612C1483.66 -74.3923 1481.66 -74.869 1479.68 -75.3793V136.008H1474.79V146.133H1445.02C1438.27 146.133 1432.8 151.606 1432.8 158.357V225.907C1432.8 232.658 1438.27 238.131 1445.02 238.131H1631V146.133H1490.57Z"
      fill="white"
    />
  </g>
</svg>
