<svg xmlns="http://www.w3.org/2000/svg" width="97" height="32" viewBox="0 0 97 32">
    <g fill="none" fill-rule="evenodd">
        <g fill="#FFF">
            <g>
                <g>
                    <g>
                        <path d="M93.818 16.693l1.888 1.157v13.835h-1.888v-1.954c-.906 1.362-2.425 2.183-4.053 2.195h-.114c-3.315 0-5.686-2.472-5.686-5.844 0-3.442 2.371-5.96 5.686-5.96 1.68-.018 3.253.827 4.167 2.241v-5.67zm-48.108-.005l1.865 1.156v10.057c0 1.594.967 2.217 2.187 2.217.948.01 1.874-.281 2.647-.831v1.825c-.795.527-1.727.808-2.678.81l-.13-.002c-2.418 0-3.89-1.086-3.89-4.157V16.688zM9.577 21.246v2.102c-.885-.94-2.113-1.473-3.398-1.479l-.124.001c-2.418 0-4.121 1.686-4.121 4.111 0 2.426 1.726 4.135 4.144 4.135 1.313.045 2.597-.39 3.614-1.224v1.917c-1.126.742-2.452 1.12-3.798 1.085C2.417 31.894 0 29.47 0 25.981c0-3.427 2.432-5.837 5.827-5.889h.112c1.306-.022 2.583.383 3.638 1.154zm23.942 1.04v-1.987h1.888v11.387H33.52v-1.94c-.922 1.34-2.436 2.14-4.053 2.149h-.113c-3.316 0-5.687-2.472-5.687-5.844 0-3.404 2.32-5.904 5.578-5.958l.109-.001c1.669-.021 3.235.804 4.166 2.194zm43.764-2.194c3.269 0 5.41 2.425 5.41 5.681 0 .317-.022.634-.069.947h-8.955c.276 2.056 1.887 3.419 4.143 3.419 1.45.012 2.868-.432 4.052-1.27v1.801c-1.152.783-2.508 1.208-3.897 1.224h-.155c-3.568 0-6.123-2.31-6.123-5.797 0-3.419 2.164-6.005 5.594-6.005zm-19.2 0c3.27 0 5.41 2.425 5.41 5.681 0 .317-.022.634-.069.947H54.47c.276 2.056 1.888 3.419 4.144 3.419 1.45.012 2.867-.432 4.051-1.27v1.801c-1.152.783-2.508 1.208-3.897 1.224h-.154c-3.569 0-6.124-2.31-6.124-5.797 0-3.419 2.164-6.005 5.594-6.005zm-46.32-3.402l1.866 1.156v4.394c.826-1.328 2.272-2.137 3.828-2.149h.108c2.855 0 4.374 2.102 4.374 4.897v6.698h-1.887v-6.374c0-2.218-.967-3.396-2.947-3.396-2.095 0-3.476 1.802-3.476 4.065v5.705h-1.865V16.69zm32.553 3.402v2.148c-2.256-.324-4.143 1.2-4.143 4.018v5.428h-1.865V20.3h1.865v2.426c.897-1.686 2.348-2.633 4.143-2.633zm27.234 0v2.148c-2.256-.324-4.143 1.2-4.143 4.018v5.428h-1.865V20.3h1.865v2.426c.897-1.686 2.348-2.633 4.143-2.633zM89.836 21.9c-2.303 0-3.937 1.755-3.937 4.157 0 2.356 1.634 4.089 3.937 4.089 2.325 0 3.982-1.733 3.982-4.089 0-2.402-1.657-4.157-3.982-4.157zm-60.3-.03c-2.301 0-3.936 1.754-3.936 4.157 0 2.355 1.635 4.088 3.937 4.088 2.325 0 3.982-1.733 3.982-4.088 0-2.403-1.657-4.158-3.982-4.158zm28.57-.047c-2.072 0-3.315 1.455-3.614 3.372h7.021c-.184-1.94-1.404-3.372-3.407-3.372zm19.2 0c-2.072 0-3.315 1.455-3.614 3.372h7.021c-.184-1.94-1.404-3.372-3.407-3.372zm-28.161-1.756c.438-.223.957-.205 1.378.042l.066.04 1.878 1.255-1.854 1.193c-.452.291-1.026.304-1.49.04l-.062-.038-.04-.025c-.436-.28-.689-.771-.663-1.29.025-.518.326-.982.787-1.217zM7.528 4.48v1.963c-.934-.88-2.15-1.395-3.43-1.455-1.197 0-2.05.554-2.05 1.478 0 .693.323 1.109 1.221 1.455l2.694 1.086c1.45.623 2.118 1.501 2.118 2.725 0 2.171-1.75 3.51-4.213 3.51-1.372.036-2.718-.369-3.845-1.154v-2.032c1.026 1.032 2.414 1.62 3.868 1.64 1.335 0 2.302-.578 2.302-1.617 0-.624-.322-1.109-1.174-1.456L2.325 9.538C.944 8.938.185 8.152.185 6.674c0-1.955 1.538-3.194 3.782-3.233h.108c1.232-.035 2.443.33 3.453 1.039zM11.626 0v11.224c0 1.594.967 2.217 2.187 2.217.948.01 1.874-.281 2.648-.831v1.825c-.832.55-1.813.833-2.81.808-2.416 0-3.89-1.086-3.89-4.158V1.158L11.626 0zM67.2 5.635V3.648h1.888v11.387H67.2v-1.94c-.922 1.339-2.436 2.14-4.054 2.149l-.113-.001c-3.315 0-5.686-2.471-5.686-5.844 0-3.403 2.32-5.903 5.577-5.958h.11c1.668-.022 3.235.804 4.166 2.194zM89.854 0v15.034h-1.888v-1.986c-.906 1.362-2.426 2.182-4.053 2.194h-.114c-3.315 0-5.686-2.471-5.686-5.844 0-3.441 2.37-5.959 5.686-5.959 1.68-.019 3.252.827 4.167 2.24V1.158L89.854 0zM26.889 5.635V3.648h1.888v11.387h-1.888v-1.94c-.922 1.339-2.436 2.14-4.054 2.149l-.113-.001c-3.315 0-5.686-2.471-5.686-5.844 0-3.403 2.32-5.903 5.577-5.958h.11c1.668-.022 3.235.804 4.166 2.194zM55.321 0v15.034h-1.888v-1.986c-.906 1.362-2.425 2.182-4.053 2.194h-.114c-3.315 0-5.686-2.471-5.686-5.844 0-3.441 2.371-5.959 5.686-5.959 1.68-.019 3.253.827 4.167 2.24V1.158L55.321 0zM37.37 3.44h.108c2.855 0 4.374 2.102 4.374 4.897v6.698h-1.888V8.66c0-2.217-.967-3.395-2.946-3.395-2.095 0-3.477 1.802-3.477 4.065v5.705h-1.865V3.648h1.865v1.94c.827-1.328 2.272-2.136 3.828-2.148zm40.626 0v2.148c-2.256-.323-4.144 1.201-4.144 4.02v5.427h-1.865V3.648h1.865v2.425c.898-1.686 2.348-2.633 4.144-2.633zM63.217 5.22c-2.268 0-3.889 1.705-3.935 4.053l-.001.104c0 2.356 1.634 4.088 3.936 4.088 2.326 0 3.983-1.732 3.983-4.088 0-2.402-1.657-4.157-3.983-4.157zm-40.31 0c-2.303 0-3.937 1.755-3.937 4.157 0 2.356 1.634 4.088 3.937 4.088 2.325 0 3.982-1.732 3.982-4.088 0-2.402-1.657-4.157-3.982-4.157zm26.543 0c-2.302 0-3.936 1.755-3.936 4.157 0 2.356 1.634 4.088 3.936 4.088 2.326 0 3.983-1.732 3.983-4.088 0-2.402-1.657-4.157-3.983-4.157zm34.533 0c-2.302 0-3.937 1.755-3.937 4.157 0 2.356 1.635 4.088 3.937 4.088 2.325 0 3.983-1.732 3.983-4.088 0-2.402-1.658-4.157-3.983-4.157zM14.225 3.628c.452-.292 1.026-.307 1.49-.044l.062.038.04.025c.436.278.69.77.667 1.288-.025.518-.324.984-.785 1.22-.438.223-.957.207-1.378-.04l-.066-.04-1.881-1.25 1.851-1.197z" transform="translate(-1205 -3968) translate(0 3912) translate(1167 56) translate(38)"/>
                    </g>
                </g>
            </g>
        </g>
    </g>
</svg>
